<?xml version="1.0" standalone="no"?>
<!DOCTYPE svg PUBLIC "-//W3C//DTD SVG 20010904//EN"
 "http://www.w3.org/TR/2001/REC-SVG-20010904/DTD/svg10.dtd">
<svg version="1.0" xmlns="http://www.w3.org/2000/svg"
 width="400.000000pt" height="400.000000pt" viewBox="0 0 400.000000 400.000000"
 preserveAspectRatio="xMidYMid meet">
<metadata>
Created by potrace 1.11, written by Peter Selinger 2001-2013
</metadata>
<g transform="translate(0.000000,400.000000) scale(0.100000,-0.100000)"
fill="#000000" stroke="none">
<path d="M1230 3941 c-20 -5 -25 -14 -27 -39 -2 -38 20 -54 65 -48 53 6 74 42
41 72 -23 20 -43 24 -79 15z"/>
<path d="M1877 3822 c-18 -38 1 -57 62 -59 33 -1 51 3 52 10 1 7 3 22 4 34 3
26 -15 36 -69 38 -31 1 -40 -3 -49 -23z"/>
<path d="M1505 3830 c-31 -5 -37 -20 -36 -85 2 -92 6 -95 129 -94 118 1 129 9
127 97 -1 34 -6 67 -12 73 -11 11 -161 17 -208 9z"/>
<path d="M1169 3674 c-6 -8 -9 -20 -6 -29 4 -8 2 -17 -3 -20 -10 -6 -3 -56 10
-69 12 -12 141 -15 163 -4 16 8 18 20 15 71 l-3 62 -82 1 c-59 1 -86 -2 -94
-12z"/>
<path d="M1995 3632 c-23 -19 -25 -46 -7 -79 10 -18 19 -21 67 -19 30 2 57 5
60 8 12 12 11 79 -2 89 -7 6 -31 9 -53 7 -22 -2 -41 0 -42 3 -2 4 -12 0 -23
-9z"/>
<path d="M3314 3588 c-15 -4 -37 -6 -48 -4 -12 2 -28 0 -36 -4 -8 -4 -37 -10
-65 -14 -66 -8 -75 -10 -178 -40 -49 -14 -103 -27 -120 -28 -18 -1 -35 -6 -38
-10 -3 -5 -22 -9 -42 -10 -20 -1 -37 -5 -37 -10 0 -4 -13 -8 -29 -8 -16 0 -42
-5 -58 -11 -15 -7 -39 -13 -53 -15 -52 -6 -65 -9 -71 -17 -3 -4 -22 -9 -42
-10 -21 -1 -37 -5 -37 -8 0 -4 -22 -9 -48 -13 -27 -3 -52 -9 -56 -13 -6 -7
-20 -11 -61 -18 -11 -2 -22 -4 -25 -6 -3 -1 -9 -3 -15 -4 -5 -2 -12 -4 -15 -5
-3 -1 -21 -3 -40 -5 -19 -2 -74 -15 -122 -29 -47 -14 -99 -28 -115 -31 -15 -3
-41 -7 -58 -11 -16 -3 -41 -11 -55 -17 -24 -12 -25 -16 -25 -100 0 -48 -4 -87
-8 -87 -5 0 -5 -5 -2 -11 5 -7 12 -6 23 3 27 21 82 50 82 42 0 -3 6 -2 13 4 6
5 29 13 50 16 21 3 46 10 55 15 9 5 36 11 60 15 24 3 49 9 55 13 7 4 23 9 37
11 14 1 41 8 60 14 19 7 40 13 45 14 6 1 21 4 35 7 37 7 233 58 250 64 8 4 28
7 44 8 15 1 31 7 35 12 3 6 14 9 24 7 9 -1 17 1 17 5 0 4 10 7 23 6 12 -1 31
3 42 8 11 6 25 12 30 13 29 5 165 34 180 38 164 47 345 49 474 7 36 -12 68
-21 73 -21 9 0 26 -15 68 -63 l25 -29 0 -514 c0 -415 -3 -515 -13 -519 -7 -3
-11 -9 -7 -14 5 -8 -15 -30 -89 -96 -6 -5 -20 -12 -31 -13 -11 -2 -31 -10 -45
-17 -14 -7 -29 -11 -35 -9 -6 3 -9 76 -8 199 1 107 -1 195 -6 195 -5 0 -12 11
-15 25 -8 32 -36 65 -56 65 -8 0 -27 6 -42 14 -25 13 -56 13 -123 0 -16 -3
-42 -7 -57 -8 -16 -2 -29 -5 -30 -6 -4 -3 -61 -10 -105 -13 -18 -1 -33 -4 -33
-7 0 -3 -17 -6 -37 -6 -44 -2 -56 -5 -100 -24 -32 -14 -67 -66 -57 -82 3 -4 0
-8 -6 -8 -7 0 -11 -47 -10 -152 1 -84 1 -158 0 -164 0 -9 -45 -13 -45 -5 0 4
-69 12 -92 12 -12 -1 -24 3 -27 8 -3 5 -19 7 -36 5 -16 -2 -30 0 -30 4 0 4 -8
8 -17 8 -10 1 -36 4 -58 8 -22 4 -58 9 -80 11 -22 2 -58 8 -80 14 -22 5 -49
10 -60 10 -21 0 -90 9 -90 11 0 1 -11 3 -25 5 -14 1 -38 6 -55 10 -16 4 -41 8
-55 9 -36 2 -113 40 -150 72 -18 16 -36 28 -41 26 -5 -1 -9 4 -9 12 0 8 -5 27
-11 43 -13 33 -17 93 -6 93 4 0 3 9 -3 20 -6 11 -7 20 -2 20 4 0 5 27 2 60 -3
33 -2 60 2 60 5 0 4 9 -2 20 -8 15 -8 20 2 20 11 1 -12 19 -26 22 -3 0 -31 7
-63 15 -80 19 -93 22 -133 29 -19 4 -42 10 -51 15 -11 5 -20 4 -27 -4 -12 -16
-12 -418 0 -434 5 -7 7 -17 3 -23 -3 -5 -1 -10 4 -10 6 0 11 -9 11 -19 0 -19
39 -74 40 -56 0 6 6 -1 13 -14 13 -25 89 -71 166 -100 l46 -17 1 -149 c2 -179
1 -175 14 -175 11 0 40 26 180 160 43 41 89 84 101 94 25 21 99 32 99 15 0 -6
5 -7 10 -4 10 6 138 -11 170 -23 8 -3 33 -6 55 -8 22 -2 51 -7 65 -11 14 -4
39 -7 55 -8 17 -1 44 -5 60 -9 17 -5 50 -10 75 -13 57 -5 95 -11 95 -13 0 -5
108 -22 133 -21 13 0 43 -4 68 -9 24 -6 61 -13 82 -15 20 -3 66 -10 102 -15
76 -10 71 -10 180 -14 166 -7 441 50 472 98 4 6 8 7 8 3 0 -15 80 36 86 55 3
10 12 18 20 18 8 0 15 5 15 10 3 21 5 26 22 51 12 18 16 37 12 58 -3 17 -1 31
4 31 6 0 8 16 7 35 -2 19 0 38 5 41 5 3 6 11 2 17 -12 18 -10 101 2 109 6 5 6
8 0 8 -10 0 -10 24 -2 90 2 14 0 33 -5 42 -5 10 -4 20 3 24 8 4 7 9 -2 15 -11
6 -11 11 -2 20 8 8 9 18 2 31 -5 10 -6 18 -2 18 10 0 10 41 -1 58 -4 7 -2 12
5 12 10 0 10 3 1 12 -8 8 -8 17 -1 31 9 15 8 18 -3 11 -11 -6 -11 -5 1 9 7 9
9 17 4 17 -10 0 -10 41 1 58 4 7 2 12 -6 12 -8 0 -9 3 -3 8 15 11 18 42 3 42
-10 0 -10 2 0 9 8 4 14 12 14 16 0 4 -6 12 -14 16 -7 5 -8 9 -2 9 5 0 10 11
10 25 0 14 -5 25 -10 25 -7 0 -8 3 -1 8 11 7 15 82 5 82 -3 0 -5 16 -5 35 0
19 4 35 9 35 5 0 4 6 -1 13 -6 6 -8 26 -6 42 4 37 4 44 -1 75 -2 14 1 30 6 37
5 7 5 14 -2 18 -7 4 -7 12 0 25 6 11 6 21 1 24 -5 3 -16 21 -25 41 -9 19 -23
35 -31 35 -8 0 -15 6 -15 14 0 8 -18 22 -40 32 -22 10 -40 21 -40 24 0 7 -72
32 -105 36 -11 1 -31 5 -45 9 -74 18 -257 26 -306 13z m-71 -1360 l0 -183 -24
0 c-24 0 -34 25 -20 50 9 15 8 249 0 260 -13 18 -3 48 17 56 10 3 21 5 23 3 2
-2 4 -86 4 -186z m-402 128 c1 -27 1 -269 0 -277 -2 -10 -31 -6 -32 5 -3 23
-5 281 -3 287 7 15 34 3 35 -15z"/>
<path d="M1724 3526 c-18 -10 -22 -32 -15 -86 2 -15 127 -13 138 3 8 10 10 35
4 84 -1 16 -99 15 -127 -1z"/>
<path d="M1287 3482 c-12 -15 -14 -87 -2 -114 6 -15 20 -18 84 -18 42 0 81 4
86 8 15 10 12 109 -3 124 -17 17 -150 17 -165 0z"/>
<path d="M1411 3240 c-5 -12 -7 -130 -2 -215 1 -19 7 -20 159 -18 86 0 163 2
170 2 9 1 12 32 12 121 0 66 -3 121 -7 121 -5 1 -79 2 -166 3 -133 1 -160 -1
-166 -14z"/>
<path d="M506 3103 c-2 -3 -24 -6 -48 -8 -37 -3 -64 -8 -103 -19 -5 -2 -23 -7
-39 -11 -68 -19 -157 -83 -181 -132 -11 -21 -26 -46 -34 -55 -10 -13 -11 -18
-2 -18 8 0 9 -5 2 -18 -7 -13 -6 -23 2 -32 9 -10 9 -11 0 -6 -7 4 -13 2 -13
-3 0 -6 6 -11 13 -11 8 0 7 -4 -3 -10 -12 -8 -12 -10 -1 -10 11 0 11 -3 0 -17
-11 -13 -11 -17 -1 -20 6 -3 12 -9 12 -14 0 -6 -6 -7 -12 -3 -10 6 -10 4 0 -8
10 -13 10 -17 0 -21 -10 -3 -10 -7 -1 -17 8 -9 9 -19 2 -32 -7 -12 -6 -18 1
-18 7 0 7 -7 -1 -21 -7 -13 -7 -19 -1 -15 12 7 10 -33 -3 -53 -5 -10 -4 -12 3
-7 7 4 12 1 12 -9 0 -10 -5 -13 -12 -9 -10 6 -10 4 0 -8 9 -12 10 -18 2 -23
-8 -5 -6 -13 6 -26 15 -17 15 -19 1 -25 -14 -5 -14 -8 -3 -19 10 -11 13 -82
11 -342 -1 -217 2 -333 9 -342 8 -11 8 -13 -1 -8 -19 12 -9 -63 16 -114 44
-91 118 -143 266 -189 39 -11 88 -24 110 -27 22 -3 58 -8 80 -12 22 -4 92 -6
155 -5 106 2 152 5 220 19 14 2 41 7 60 9 19 3 82 12 140 21 58 10 119 18 136
20 17 1 35 4 40 7 5 3 21 5 37 4 15 -1 27 2 27 7 0 5 10 8 23 7 12 -1 24 -1
27 0 15 5 50 11 90 14 25 3 56 7 70 10 14 4 39 8 55 10 17 2 46 7 65 10 19 4
51 8 70 11 19 2 46 7 60 10 14 3 46 8 71 11 41 6 48 4 66 -20 12 -14 26 -26
32 -26 6 0 11 -7 11 -15 0 -8 4 -15 10 -15 5 0 38 -28 73 -62 35 -35 73 -70
85 -78 12 -8 25 -23 28 -32 3 -10 9 -16 14 -13 5 3 10 -1 13 -7 12 -35 18 14
18 156 l0 157 32 14 c18 7 62 26 100 41 37 15 67 30 67 33 0 3 16 24 35 45 19
22 35 46 35 53 0 7 4 13 8 13 4 0 9 10 9 22 1 13 6 24 11 26 5 1 6 16 4 33 -5
34 -22 43 -95 52 -26 3 -51 8 -55 11 -4 2 -27 5 -52 7 -25 1 -51 7 -59 13 -17
13 -53 -27 -44 -50 3 -8 -2 -23 -10 -32 -46 -49 -55 -61 -51 -65 8 -7 -122
-65 -162 -72 -39 -7 -48 -8 -139 -21 -27 -3 -71 -12 -98 -19 -28 -7 -50 -8
-53 -3 -3 5 -12 4 -19 -2 -8 -6 -36 -12 -64 -13 -28 -1 -51 -5 -51 -8 0 -4
-10 -5 -22 -5 -13 1 -27 0 -33 -3 -5 -3 -19 -6 -30 -7 -11 -1 -30 -5 -42 -8
-28 -6 -46 21 -32 47 6 9 6 17 1 17 -7 0 -8 33 -2 50 6 15 4 36 -4 48 -5 6 -5
12 0 12 11 0 10 51 0 68 -4 7 -4 12 1 12 4 0 8 11 8 25 0 14 -4 25 -9 25 -5 0
-3 7 4 15 7 8 8 15 3 15 -5 0 -9 9 -10 20 -2 20 -14 38 -49 73 -21 20 -46 28
-91 27 -13 0 -23 4 -23 10 0 5 -13 7 -30 5 -16 -2 -32 0 -35 4 -2 5 -16 6 -30
3 -14 -2 -31 0 -38 6 -6 5 -19 8 -28 7 -9 -2 -54 2 -100 9 -114 16 -160 6
-202 -48 l-32 -40 0 -236 c0 -129 -4 -241 -8 -247 -5 -8 -21 -11 -40 -8 -18 3
-50 8 -72 11 -59 8 -60 8 -66 17 -3 4 -14 9 -25 11 -41 9 -97 38 -131 69 -62
57 -66 73 -67 270 -1 97 2 177 5 177 4 0 4 14 -1 30 -5 17 -5 30 -1 30 5 0 5
18 1 40 -5 26 -4 40 3 40 8 0 8 3 1 10 -6 6 -8 31 -4 61 4 27 4 52 1 54 -3 1
-6 91 -5 198 0 177 2 198 20 223 37 51 66 71 137 95 64 21 88 24 227 23 133
-1 171 -5 265 -29 61 -15 121 -29 134 -32 14 -2 28 -6 33 -9 4 -3 18 -7 30 -9
13 -3 113 -28 223 -56 110 -28 207 -52 215 -54 8 -2 35 -9 60 -16 25 -7 54
-14 65 -16 39 -7 250 -63 270 -72 11 -5 39 -17 63 -26 42 -18 102 -67 102 -84
0 -5 7 -12 16 -15 8 -3 12 -10 9 -16 -3 -5 -1 -10 5 -10 6 0 8 -11 6 -25 -3
-14 -1 -25 3 -25 5 0 8 -45 8 -100 0 -65 -4 -100 -11 -100 -6 0 0 -7 12 -16
13 -9 32 -14 43 -11 10 3 21 1 24 -3 3 -5 13 -9 23 -8 9 0 31 -3 47 -7 17 -3
44 -8 60 -10 17 -2 39 -6 50 -8 23 -5 58 10 51 22 -3 4 -6 72 -6 152 -1 79 -6
149 -10 154 -5 6 -8 12 -8 15 0 17 -31 68 -59 97 -18 18 -33 37 -33 41 0 11
-80 56 -80 45 0 -4 -4 -3 -8 3 -8 13 -172 67 -179 60 -3 -2 -20 2 -39 10 -19
8 -37 14 -41 14 -5 0 -26 5 -48 11 -42 12 -64 17 -105 25 -14 3 -59 14 -100
25 -91 24 -119 31 -145 34 -11 2 -21 4 -22 5 -2 2 -7 4 -13 5 -5 1 -11 3 -12
5 -2 1 -16 4 -33 6 -16 3 -37 7 -45 11 -8 3 -28 7 -44 9 -17 3 -33 10 -37 16
-5 7 -11 10 -14 6 -3 -3 -32 1 -63 9 -31 8 -64 16 -72 18 -8 2 -37 9 -65 15
-27 6 -61 14 -74 16 -13 3 -32 9 -43 15 -10 5 -18 8 -18 5 0 -3 -15 0 -32 5
-18 6 -42 12 -53 14 -11 3 -67 16 -125 31 -110 27 -137 32 -210 40 -68 7 -249
12 -254 7z m490 -1336 c-1 -202 -1 -202 -23 -205 -13 -2 -23 0 -23 5 -4 62 -1
394 4 401 3 6 14 8 24 5 18 -4 19 -18 18 -206z m399 16 c0 -81 -4 -153 -8
-160 -4 -6 -15 -9 -25 -7 -15 5 -17 21 -17 162 0 90 4 160 9 164 6 4 17 3 26
-2 13 -7 16 -31 15 -157z"/>
<path d="M1556 2962 c-13 -12 -5 -23 14 -17 11 3 30 -1 44 -10 14 -9 30 -14
35 -11 5 4 12 3 15 -2 9 -15 73 -13 80 3 9 25 7 30 -11 32 -10 1 -35 4 -56 6
-20 3 -39 1 -42 -3 -3 -4 -20 -4 -39 0 -19 4 -37 5 -40 2z"/>
<path d="M2979 2809 c-8 -5 -24 -9 -36 -9 -13 0 -23 -5 -23 -11 0 -5 -4 -8 -9
-5 -5 3 -21 -6 -35 -19 -15 -14 -24 -25 -20 -25 3 0 1 -7 -6 -15 -14 -17 -6
-60 16 -82 27 -27 116 -54 159 -47 57 8 106 52 115 104 7 38 5 43 -25 65 -39
31 -118 56 -136 44z"/>
<path d="M1122 2353 c-44 -22 -101 -103 -72 -103 5 0 11 -8 14 -17 14 -44 111
-79 181 -66 34 7 105 76 105 103 0 11 -4 20 -10 20 -5 0 -10 7 -10 15 0 8 -20
26 -43 40 -51 29 -115 33 -165 8z"/>
<path d="M988 1201 c-52 -17 -59 -26 -29 -36 18 -6 20 -17 23 -146 3 -142 -1
-169 -27 -169 -8 0 -17 -4 -20 -10 -4 -7 50 -10 154 -10 101 0 161 4 161 10 0
6 -9 10 -20 10 -24 0 -23 -13 -25 193 -1 92 -5 170 -8 173 -3 3 -19 -2 -36
-10 -16 -9 -37 -16 -46 -16 -21 0 -19 -21 4 -27 17 -4 19 -16 18 -155 0 -142
-1 -150 -21 -157 -22 -9 -53 -3 -62 10 -3 5 -6 86 -6 179 0 94 -3 172 -7 174
-3 1 -27 -4 -53 -13z"/>
<path d="M1613 1212 c-17 -10 -19 -53 -8 -132 5 -36 10 -68 11 -72 1 -5 2 -21
3 -38 1 -19 6 -30 16 -30 8 0 15 3 16 8 0 4 2 15 4 24 6 33 16 104 21 159 4
44 1 60 -11 73 -18 18 -33 20 -52 8z"/>
<path d="M2306 1201 c-23 -25 -6 -61 29 -61 37 0 51 34 25 60 -25 25 -32 25
-54 1z"/>
<path d="M2554 1213 c-31 -6 -55 -36 -75 -95 -10 -29 -24 -53 -31 -53 -7 0
-13 -7 -13 -15 0 -8 7 -15 15 -15 12 0 16 -18 18 -87 3 -79 1 -87 -18 -93 -43
-14 -16 -25 60 -25 47 0 80 4 80 10 0 6 -6 10 -12 10 -31 1 -40 18 -40 81 1
111 0 106 25 105 13 -1 22 5 22 14 0 9 -9 15 -22 14 -21 -1 -23 4 -23 53 0 63
21 81 50 43 21 -28 60 -20 60 12 0 38 -36 53 -96 41z"/>
<path d="M2935 1202 c-53 -21 -53 -21 -30 -38 17 -13 19 -27 20 -152 1 -75 0
-143 -3 -149 -2 -7 -13 -13 -23 -13 -10 0 -19 -4 -19 -10 0 -6 60 -10 160 -10
100 0 160 4 160 10 0 6 -9 10 -19 10 -26 0 -29 16 -27 138 2 110 -4 120 -48
87 -11 -8 -28 -15 -38 -15 -24 0 -23 -26 1 -33 18 -4 20 -14 18 -86 -1 -77 -2
-81 -26 -89 -15 -5 -36 -6 -49 -1 -22 8 -22 11 -22 189 0 99 -3 180 -7 179 -5
-1 -26 -8 -48 -17z"/>
<path d="M3096 1204 c-19 -18 -19 -20 -6 -45 6 -11 21 -19 35 -19 33 0 47 47
20 67 -24 17 -30 16 -49 -3z"/>
<path d="M150 1200 c0 -6 14 -13 30 -16 l30 -6 0 -158 0 -157 -30 -7 c-16 -3
-30 -10 -30 -16 0 -6 39 -10 101 -10 76 0 100 3 97 13 -3 6 -16 13 -31 15 -26
3 -26 4 -24 75 l2 72 85 0 c47 1 91 -1 98 -3 8 -3 12 -27 12 -72 0 -67 0 -68
-30 -73 -62 -13 -27 -25 70 -25 80 -1 100 2 100 14 0 8 -9 14 -19 14 -11 0
-23 5 -26 11 -4 6 -7 68 -7 137 0 179 -1 170 24 174 12 2 23 9 26 16 3 9 -20
12 -92 12 -92 0 -126 -12 -72 -26 26 -6 35 -42 28 -112 l-3 -33 -97 3 -97 3
-3 62 c-3 56 -1 63 20 74 13 7 25 11 28 10 2 -1 6 2 8 8 2 7 -30 11 -97 11
-62 0 -101 -4 -101 -10z"/>
<path d="M1880 1199 c0 -5 13 -15 29 -20 36 -13 39 -34 31 -204 l-5 -110 -27
-3 c-14 -2 -29 -9 -32 -17 -4 -11 25 -14 165 -14 93 0 174 -3 179 -6 14 -9 22
12 24 65 3 59 -13 67 -41 20 -21 -36 -68 -53 -133 -48 l-45 3 0 153 0 153 27
6 c16 3 28 12 28 19 0 11 -22 14 -100 14 -63 0 -100 -4 -100 -11z"/>
<path d="M2320 1075 c-14 -8 -33 -14 -42 -15 -25 0 -23 -21 2 -27 19 -5 21
-12 18 -92 -3 -80 -5 -86 -25 -89 -12 -2 -20 -9 -17 -15 5 -14 154 -11 154 4
0 5 -9 9 -20 9 -22 0 -22 -3 -21 143 1 104 -1 109 -49 82z"/>
<path d="M3284 1079 c-3 -6 -23 -18 -43 -26 -35 -15 -35 -16 -13 -26 16 -8 22
-19 23 -46 1 -20 2 -52 4 -71 2 -27 -4 -40 -23 -57 l-25 -21 71 -4 c49 -2 72
1 72 8 0 7 -7 14 -15 18 -12 4 -15 23 -15 84 0 84 -3 79 62 109 4 2 16 -5 26
-15 15 -15 19 -36 21 -96 2 -71 0 -78 -18 -83 -12 -3 -21 -10 -21 -17 0 -7 23
-10 70 -8 67 4 90 14 52 24 -16 5 -19 17 -20 94 0 83 -2 90 -27 111 -30 27
-68 29 -109 8 -31 -17 -48 -12 -39 10 6 18 -22 21 -33 4z"/>
<path d="M733 1060 c-17 -10 -36 -27 -42 -38 -29 -54 -18 -132 22 -170 43 -40
133 -39 181 3 29 25 20 43 -13 25 -50 -26 -105 -6 -128 47 -20 48 -7 55 83 48
83 -7 94 3 63 54 -32 53 -107 67 -166 31z m89 -12 c8 -7 18 -21 21 -30 6 -16
0 -18 -43 -18 -54 0 -62 10 -33 42 19 21 33 23 55 6z"/>
<path d="M1334 1065 c-41 -21 -64 -64 -64 -118 0 -150 238 -171 265 -24 9 49
0 81 -34 119 -23 26 -36 32 -82 35 -36 2 -64 -2 -85 -12z m91 -11 c21 -9 41
-52 39 -89 -3 -70 -5 -82 -17 -99 -16 -22 -63 -24 -83 -4 -33 33 -23 182 14
191 27 7 29 7 47 1z"/>
<path d="M2684 1064 c-91 -45 -84 -203 11 -234 44 -15 99 -6 138 22 33 23 23
47 -11 29 -57 -31 -137 11 -130 68 3 26 4 26 87 23 l83 -2 -6 27 c-4 16 -20
40 -37 56 -34 31 -85 36 -135 11z m98 -27 c21 -33 7 -41 -57 -37 -39 3 -41 5
-21 36 14 21 23 25 44 19 15 -4 30 -12 34 -18z"/>
<path d="M3619 1065 c-60 -32 -83 -132 -45 -190 36 -55 131 -69 192 -29 28 19
34 50 7 38 -67 -29 -125 -8 -142 53 -11 38 -3 42 93 38 36 -2 68 1 71 5 10 17
-16 61 -47 80 -38 23 -92 25 -129 5z m91 -25 c11 -11 20 -24 20 -29 0 -9 -70
-19 -89 -13 -26 9 4 62 35 62 8 0 23 -9 34 -20z"/>
<path d="M1618 898 c-24 -20 -28 -45 -9 -62 32 -29 71 -13 71 29 0 39 -32 56
-62 33z"/>
<path d="M288 616 c-13 -13 -39 -35 -60 -48 -49 -33 -37 -55 15 -28 43 23 39
34 38 -105 0 -191 2 -175 -31 -181 -16 -4 -30 -12 -30 -20 0 -10 22 -12 95
-11 53 1 96 6 98 12 1 6 -10 11 -25 13 -16 2 -29 9 -29 15 -1 7 -2 93 -3 191
-1 177 -1 179 -23 182 -14 2 -31 -5 -45 -20z"/>
<path d="M563 630 c-77 -17 -107 -64 -94 -149 0 -4 14 -21 29 -38 l29 -29 -28
-16 c-33 -19 -50 -70 -37 -109 31 -90 168 -103 227 -21 35 50 26 111 -26 159
l-23 22 25 25 c69 69 -3 177 -102 156z m55 -43 c17 -20 22 -66 10 -93 -13 -27
-20 -29 -51 -12 -49 26 -64 61 -42 94 17 27 65 33 83 11z m19 -251 c16 -49 -7
-88 -53 -88 -55 0 -84 79 -48 130 l15 22 40 -22 c21 -12 42 -31 46 -42z"/>
<path d="M844 630 c-32 -13 -72 -66 -85 -113 -16 -59 -7 -184 16 -231 39 -81
124 -96 182 -33 39 43 56 101 54 186 -3 132 -84 225 -167 191z m65 -46 c19
-24 20 -38 18 -165 -2 -153 -11 -178 -60 -165 -32 8 -37 28 -37 168 0 114 9
165 33 180 19 12 24 10 46 -18z"/>
<path d="M1144 629 c-31 -11 -72 -65 -85 -112 -16 -59 -7 -184 16 -231 39 -81
124 -96 182 -33 76 84 73 272 -6 355 -12 12 -27 23 -34 23 -7 1 -21 3 -32 4
-11 1 -30 -1 -41 -6z m76 -58 c5 -11 9 -78 7 -153 -2 -145 -10 -168 -52 -168
-34 0 -45 44 -45 176 0 145 18 196 62 173 10 -5 22 -18 28 -28z"/>
<path d="M1645 608 c-16 -16 -42 -36 -57 -44 -16 -8 -28 -19 -28 -24 0 -18 17
-18 48 1 18 10 35 19 37 19 3 0 5 -65 5 -146 l0 -145 -35 -15 c-20 -8 -33 -18
-31 -23 3 -5 48 -8 101 -9 73 0 95 3 95 13 0 8 -12 15 -27 17 l-28 3 0 188 c1
103 -2 187 -5 188 -3 0 -14 2 -25 4 -12 2 -31 -8 -50 -27z"/>
<path d="M1911 629 c-43 -9 -79 -45 -87 -86 -9 -46 17 -44 39 2 20 42 56 54
91 31 67 -43 32 -136 -106 -281 -65 -69 -58 -74 92 -73 72 0 130 5 130 9 0 5
0 10 1 12 8 23 14 89 9 92 -9 5 -36 -17 -42 -34 -3 -9 -55 -14 -127 -12 l-34
1 29 23 c62 48 145 143 155 179 29 93 -44 159 -150 137z"/>
<path d="M2208 616 c-13 -13 -39 -35 -60 -48 -49 -33 -37 -55 15 -28 43 23 39
34 38 -105 0 -191 2 -175 -31 -181 -16 -4 -30 -12 -30 -20 0 -10 22 -12 95
-11 53 1 96 6 98 12 1 6 -10 11 -25 13 -16 2 -28 9 -29 15 -1 7 -2 93 -3 191
-1 177 -1 179 -23 182 -14 2 -31 -5 -45 -20z"/>
<path d="M2693 633 c-28 -5 -83 -56 -83 -77 0 -22 16 -20 40 4 26 26 66 26 80
-1 18 -32 4 -66 -39 -97 -26 -19 -37 -33 -31 -41 6 -10 12 -10 28 -2 17 9 26
7 48 -13 23 -19 28 -31 27 -66 -2 -83 -65 -126 -113 -75 -42 44 -105 19 -64
-26 39 -43 154 -36 209 12 69 61 62 182 -12 210 l-26 10 28 29 c66 68 9 150
-92 133z"/>
<path d="M3080 631 c-126 -39 -193 -123 -194 -246 -1 -84 26 -139 80 -161 70
-29 171 17 176 80 0 11 2 33 3 48 5 74 -66 132 -132 107 -31 -11 -29 -29 2
-29 39 0 58 -39 53 -106 -6 -65 -25 -90 -62 -80 -29 7 -38 32 -41 110 -4 124
50 222 135 247 26 8 37 16 33 25 -6 15 -15 16 -53 5z"/>
<path d="M3338 613 c-106 -49 -151 -117 -152 -228 -1 -57 4 -77 23 -109 59
-94 203 -79 231 25 29 107 -44 190 -136 155 -23 -9 -16 -26 10 -26 36 0 56
-35 56 -97 0 -55 -22 -93 -54 -93 -21 0 -46 28 -47 53 -5 94 -3 123 8 168 21
81 41 102 141 148 8 3 13 11 13 16 -1 18 -40 13 -93 -12z"/>
<path d="M3494 615 c-1 -5 -5 -29 -7 -53 -5 -49 10 -65 31 -34 12 19 24 22 82
22 36 0 69 -2 72 -5 4 -5 -37 -119 -113 -313 -8 -22 -7 -23 29 -20 31 3 37 6
35 25 -1 12 24 96 57 188 33 91 60 174 60 183 0 15 -14 17 -121 17 -72 0 -123
-4 -125 -10z"/>
<path d="M1360 382 c-5 -2 -10 -16 -10 -31 l0 -27 79 -1 c79 -1 100 6 95 35
-1 6 -2 15 -3 20 -1 7 -141 10 -161 4z"/>
<path d="M2397 382 c-24 -3 -28 -7 -25 -30 3 -27 4 -27 86 -28 45 -1 82 2 83
5 0 3 2 14 4 23 2 10 -2 21 -8 25 -12 8 -90 11 -140 5z"/>
</g>
</svg>
